<?xml version="1.0" standalone="no"?><!DOCTYPE svg PUBLIC "-//W3C//DTD SVG 1.1//EN" "http://www.w3.org/Graphics/SVG/1.1/DTD/svg11.dtd"><svg class="icon" width="24px" height="24.00px" viewBox="0 0 1024 1024" version="1.1" xmlns="http://www.w3.org/2000/svg"><path fill="#2c2c2c" d="M829.2 580.6c-42.3 12.8-472.4 137.3-472.4 137.3s-119.1 39.9-207.2-67.6l97.8-40.6c17 5.8 32.8 5.3 53.8-1.5l111.2-27.5-166.8-247s-33.8-53.6 83.3-27.4c0 0 211.9 162.3 250.1 192.1 0 0 19.5 11.1 55.6 0l166.8-54.9s112.9-34.5 138.9 27.4c27.3 64.8-68.9 96.9-111.1 109.7z m-698.4 49.8c-43.6-48.7-51.9-77.3-51.9-77.3s9-59.5 83.3 0c21.7 17.4 44.7 29.3 59.4 39.1l-90.8 38.2z m0 0"  /></svg>