<?xml version="1.0" standalone="no"?><!DOCTYPE svg PUBLIC "-//W3C//DTD SVG 1.1//EN" "http://www.w3.org/Graphics/SVG/1.1/DTD/svg11.dtd"><svg class="icon" width="24px" height="24.00px" viewBox="0 0 1024 1024" version="1.1" xmlns="http://www.w3.org/2000/svg"><path fill="#2c2c2c" d="M896.7 518.7c-3-20.2-11.7-38-23.6-54.3-10.6-14.6-21.5-29-32.5-43.2-14-18.4-28.2-36.6-42.6-54.6-8.8-10.9-20.6-15.4-34.7-15.4-41.5 0.1-83.1 0-124.7 0.1-3.6 0-7.1 0.4-10.6 1.2-13.8 3.6-21.5 14.6-21.5 30.2v284.7c0 1.9 0 3.8 0.2 5.8 1.4 14.4 14.7 26.3 28.5 25.1 4.1-25 15.6-46.3 34.8-62.9 19.5-16.8 42.4-25 68-25 42.5-0.1 91.9 30.4 101.5 88.5h18.1c5.5-0.1 11.2 0.3 16.5-0.8 14.1-3 22.7-14.5 22.7-29.6 0.1-47.5 0-95.1 0-142.6 0.4-2.6 0.3-4.9-0.1-7.2zM693.8 525V408.9h5.2c20.3 0 40.8 0.3 61.2-0.1 6.5-0.4 12.8 2.7 16.5 8 21.4 29.3 42.7 58.8 63.7 88.5 3.5 5 5.3 11.2 7.8 16.9 0.4 0.7 0 1.7 0 2.8H693.8zM306.4 646.7c36.9 0 66.8 29.8 67 66.6 0 17.8-7.1 34.9-19.7 47.4-12.6 12.6-29.7 19.6-47.5 19.6-36.9 0-66.8-30-66.7-66.9 0-36.8 30-66.7 66.9-66.7z m431.4 0c17.8 0 34.8 7.2 47.3 19.8 12.5 12.6 19.4 29.8 19.2 47.5-0.3 36.9-30.3 66.5-67.2 66.3-37-0.1-67-30.1-66.9-67.1 0.1-17.8 7.3-34.8 20-47.2 12.7-12.5 29.8-19.4 47.6-19.3z m0 0"  /><path fill="#2c2c2c" d="M512.9 243.7H177.6c-28 0-50.7 22.7-50.7 50.7V653c0 28 22.7 50.7 50.7 50.7h25.1c6.3-51.4 50-91.1 103.1-91.1s96.8 39.8 103.1 91.1h104c28 0 50.7-22.7 50.7-50.7V294.4c0-28-22.7-50.7-50.7-50.7z"  /></svg>