<?xml version="1.0" standalone="no"?><!DOCTYPE svg PUBLIC "-//W3C//DTD SVG 1.1//EN" "http://www.w3.org/Graphics/SVG/1.1/DTD/svg11.dtd"><svg class="icon" width="24px" height="24.00px" viewBox="0 0 1024 1024" version="1.1" xmlns="http://www.w3.org/2000/svg"><path fill="#2c2c2c" d="M895.8 801.4v-487c0-58.8-53.1-52.9-53.1-52.9H541.9c-18.9 0-27.1-9.4-27.1-9.4s-13-22.3-35.4-57.6c-23.6-36.5-51.9-30.6-51.9-30.6H193.9c-64.9 0-66.1 63.5-66.1 63.5v570.5c0 70.6 53.1 62.3 53.1 62.3h666.5c56.6 0 48.4-58.8 48.4-58.8z m-23.4-115.1H151.6v-198h720.8v198z"  /><path fill="#2c2c2c" d="M279.2 629.2v-25.3h-59.5v-22h53.7v-22.8h-53.7v-17.7h57.8v-23.8h-92.4v111.6h94.1z m41.5 0l17.6-26 14.9 26h36.2l-29.5-42.3 27.6-38.5h-34.2l-14.9 22.5-12.9-22.5h-36.8l27.9 38.5-29.4 42.3h33.5z m110.4 30.7v-38.6c3.1 3.2 6.6 5.6 10.5 7.2 3.9 1.6 8.3 2.4 13.1 2.4 9.8 0 18-3.5 24.4-10.6 6.4-7.1 9.7-17.3 9.7-30.8 0-12.2-3-22.4-8.9-30.7s-14.3-12.4-25.1-12.4c-5.5 0-10.5 1.2-15 3.6-3.3 1.8-7 5.2-11 10.2v-11.9h-29v111.6h31.3z m14-52c-4.1 0-7.5-1.5-10.2-4.6-2.7-3.1-4-7.8-4-14.2 0-7 1.3-12 4-15.1 2.6-3.1 5.9-4.6 9.9-4.6 3.7 0 6.7 1.5 9.3 4.6 2.5 3.1 3.8 7.9 3.8 14.4 0 7.1-1.2 12.1-3.7 15.1-2.5 2.9-5.5 4.4-9.1 4.4z m90 21.3v-27.1c0-12.9 1.6-21.8 4.8-26.5 2.2-3.3 5.4-5 9.4-5 2.1 0 5 0.8 8.7 2.3l9.6-22.1c-5.4-2.8-10.4-4.3-15-4.3-4.4 0-8 1.1-11 3.2-3 2.2-5.8 6.1-8.6 11.8v-13.2h-29v80.8h31.1zM618 631c12.3 0 21.8-1.8 28.4-5.3 6.6-3.5 12.2-9.3 16.9-17.5l-30.5-2.8c-1.9 2.4-3.7 4.1-5.4 5.1-2.7 1.5-5.6 2.3-8.7 2.3-4.8 0-8.7-1.8-11.7-5.3-2.1-2.4-3.5-6.1-4-11.1h62.1v-3.5c0-10.7-1.8-19.3-5.3-26-3.5-6.6-8.6-11.7-15.3-15.2-6.7-3.5-15.8-5.3-27.4-5.3-14.3 0-25.4 3.9-33.5 11.7-8.1 7.8-12.1 18-12.1 30.7 0 8.9 2 16.6 6.1 23.2 4 6.6 9.1 11.4 15.3 14.4 6 3.1 14.4 4.6 25.1 4.6z m15.6-49.4H603c0.5-4.8 1.7-8.4 3.6-10.9 2.9-3.9 6.9-5.9 11.8-5.9 4.3 0 7.7 1.3 10.3 3.9s4.2 6.9 4.9 12.9z m83.8 49.5c10.5 0 18.7-1.3 24.8-3.9s10.5-6.1 13.3-10.5 4.2-9 4.2-13.6-1.3-8.9-4-12.7c-2.7-3.9-6.5-6.8-11.5-8.9-5-2.1-12.7-3.7-23-4.9-6.8-0.8-11.2-1.7-13.2-2.7-2-1-3-2.5-3-4.5 0-1.8 0.8-3.3 2.4-4.5s4.1-1.9 7.6-1.9 6.4 0.8 8.8 2.4c1.8 1.2 3 3.1 3.8 5.7l29.4-2.9c-2-5.3-4.6-9.5-7.6-12.6-3.1-3.1-6.9-5.4-11.5-6.8-4.6-1.5-11.7-2.2-21.3-2.2-9.1 0-16.4 1-21.8 2.9-5.4 1.9-9.7 4.8-12.8 8.6-3.1 3.9-4.6 8.4-4.6 13.8 0 4.9 1.4 9.2 4.3 13 2.9 3.8 6.4 6.5 10.6 8.1 4.2 1.6 11.7 3.3 22.4 5.2 7.2 1.3 11.6 2.3 13.3 3.2 2.3 1.2 3.5 2.9 3.5 5.2 0 2-0.9 3.6-2.7 4.9-2.3 1.8-5.5 2.7-9.7 2.7-3.8 0-6.9-0.8-9.1-2.4-2.3-1.6-4.1-4.2-5.3-7.8l-30.7 2.9c1.8 7.8 5.8 13.8 12.1 18 6.1 4.1 16.6 6.2 31.3 6.2z m95.2 0c10.5 0 18.7-1.3 24.8-3.9s10.5-6.1 13.3-10.5 4.2-9 4.2-13.6-1.3-8.9-4-12.7c-2.7-3.9-6.5-6.8-11.5-8.9-5-2.1-12.7-3.7-23-4.9-6.8-0.8-11.2-1.7-13.2-2.7-2-1-3-2.5-3-4.5 0-1.8 0.8-3.3 2.4-4.5s4.1-1.9 7.6-1.9 6.4 0.8 8.8 2.4c1.8 1.2 3 3.1 3.8 5.7l29.4-2.9c-2-5.3-4.6-9.5-7.6-12.6-3.1-3.1-6.9-5.4-11.5-6.8-4.6-1.5-11.7-2.2-21.3-2.2-9.1 0-16.4 1-21.8 2.9-5.4 1.9-9.7 4.8-12.8 8.6-3.1 3.9-4.6 8.4-4.6 13.8 0 4.9 1.4 9.2 4.3 13 2.9 3.8 6.4 6.5 10.6 8.1 4.2 1.6 11.7 3.3 22.4 5.2 7.2 1.3 11.6 2.3 13.3 3.2 2.3 1.2 3.5 2.9 3.5 5.2 0 2-0.9 3.6-2.7 4.9-2.3 1.8-5.5 2.7-9.7 2.7-3.8 0-6.9-0.8-9.1-2.4-2.3-1.6-4.1-4.2-5.3-7.8l-30.7 2.9c1.8 7.8 5.8 13.8 12.1 18 6.1 4.1 16.6 6.2 31.3 6.2z"  /></svg>