<?xml version="1.0" standalone="no"?><!DOCTYPE svg PUBLIC "-//W3C//DTD SVG 1.1//EN" "http://www.w3.org/Graphics/SVG/1.1/DTD/svg11.dtd"><svg t="1687156316762" class="icon" viewBox="0 0 5704 1024" version="1.1" xmlns="http://www.w3.org/2000/svg" p-id="1458" xmlns:xlink="http://www.w3.org/1999/xlink" width="1114.0625" height="200"><path d="M5418.097778 254.862222H5393.066667v13.653334h27.306666v-13.653334h-2.275555z m-43.235556 154.737778v-9.102222c2.275556 0 2.275556 2.275556 6.826667 2.275555v9.102223c-4.551111 0-6.826667-2.275556-6.826667-2.275556z m0-22.755556v-131.982222h6.826667V386.844444h-6.826667z m0-145.635555v-11.377778c2.275556 0 2.275556-2.275556 6.826667-2.275555v11.377777c-4.551111 0-6.826667 2.275556-6.826667 2.275556z m6.826667 170.666667c2.275556 2.275556 9.102222 2.275556 11.377778 2.275555v-9.102222c-2.275556-2.275556-9.102222-2.275556-11.377778-2.275556v9.102223z m0-25.031112v-131.982222h11.377778v13.653334h-9.102223v43.235555h9.102223v13.653333h-9.102223V386.844444h-2.275555z m0-147.911111c2.275556-2.275556 9.102222-2.275556 11.377778-2.275555v-11.377778c-2.275556 2.275556-9.102222 2.275556-11.377778 2.275556v11.377777z m11.377778 88.746667h27.306666v-13.653333H5393.066667v13.653333z m0 88.746667v-9.102223c9.102222 2.275556 13.653333 2.275556 20.48 2.275556 2.275556 0 4.551111-2.275556 4.551111-2.275556v9.102223H5393.066667z m0-179.768889v-11.377778c9.102222-2.275556 13.653333-2.275556 20.48-2.275556h4.551111v9.102223h-4.551111c-6.826667 2.275556-13.653333 2.275556-20.48 4.551111z m25.031111-13.653334c52.337778 2.275556 93.297778 43.235556 93.297778 95.573334 0 54.613333-40.96 95.573333-93.297778 97.848889v-9.102223c20.48-2.275556 38.684444-9.102222 54.613333-20.48h-18.204444l-2.275556-2.275555c0-2.275556-2.275556-4.551111-2.275555-9.102222v-22.755556c0-9.102222-2.275556-13.653333-9.102223-18.204444-2.275556-2.275556-9.102222-2.275556-15.928889-2.275556h-6.826666V318.577778h6.826666c9.102222 0 15.928889 0 20.48-4.551111 4.551111-2.275556 6.826667-9.102222 6.826667-18.204445s-2.275556-15.928889-11.377778-18.204444c-2.275556-2.275556-6.826667-2.275556-13.653333-2.275556h-9.102222v-13.653333h9.102222c9.102222 0 18.204444 0 25.031111 2.275555 13.653333 6.826667 20.48 15.928889 20.48 31.857778 0 6.826667-2.275556 13.653333-6.826667 18.204445-2.275556 4.551111-9.102222 9.102222-13.653333 13.653333 4.551111 2.275556 9.102222 4.551111 11.377778 6.826667 2.275556 4.551111 4.551111 9.102222 4.551111 18.204444v15.928889c0 4.551111 2.275556 9.102222 2.275556 13.653333 2.275556 2.275556 2.275556 4.551111 4.551111 6.826667 13.653333-15.928889 27.306667-38.684444 27.306666-63.715556 0-43.235556-36.408889-81.92-84.195555-84.195555v-18.204445z m-43.235556 6.826667v11.377778c-27.306667 13.653333-47.786667 43.235556-47.786666 77.368889 0 36.408889 20.48 65.991111 47.786666 79.644444v11.377778c-34.133333-13.653333-59.164444-47.786667-59.164444-91.022222 0-38.684444 25.031111-72.817778 59.164444-88.746667z m0 25.031111h-6.826666V386.844444h6.826666v-131.982222zM741.831111 486.968889v95.573333h-318.577778c-22.755556 0-43.235556 13.653333-43.235555 43.235556v172.942222H191.146667V432.355556c0-102.4 79.644444-186.595556 172.942222-186.595556h405.048889v120.604444H398.222222c-9.102222 0-18.204444 9.102222-18.204444 20.48v81.92c0 11.377778 9.102222 20.48 18.204444 20.48h343.608889v-2.275555zM5229.226667 796.444444V430.08c0-102.4-91.022222-188.871111-186.595556-188.871111h-496.071111V796.444444h186.595556V382.293333c0-9.102222 9.102222-18.204444 18.204444-18.204444h273.066667c9.102222 0 18.204444 9.102222 18.204444 18.204444V796.444444h186.595556z m-1888.711111 4.551112v-122.88h131.982222c11.377778 0 20.48-9.102222 20.48-18.204445V384.568889c0-9.102222-9.102222-18.204444-20.48-18.204445h-134.257778v-120.604444h157.013333c113.777778 0 188.871111 84.195556 188.871111 186.595556v177.493333c0 102.4-77.368889 191.146667-191.146666 191.146667h-152.462222z m1117.297777 0V430.08c0-100.124444-91.022222-184.32-188.871111-184.32h-496.071111v555.235556h188.871111V384.568889c0-9.102222 9.102222-18.204444 18.204445-18.204445h273.066666c9.102222 0 15.928889 9.102222 15.928889 18.204445v416.426667h188.871111z m-1117.297777-555.235556h-134.257778c-113.777778 0-207.075556 84.195556-207.075556 186.595556v177.493333c0 102.4 91.022222 188.871111 207.075556 188.871111l134.257778 2.275556v-122.88H3208.533333c-11.377778 0-20.48-9.102222-20.48-18.204445V384.568889c0-9.102222 9.102222-18.204444 20.48-18.204445h131.982223v-120.604444zM1196.942222 800.995556v-122.88h131.982222c11.377778 0 20.48-9.102222 20.48-18.204445l2.275556-275.342222c0-9.102222-9.102222-18.204444-20.48-18.204445h-131.982222v-120.604444h157.013333c113.777778 0 186.595556 84.195556 186.595556 186.595556v177.493333c0 102.4-77.368889 191.146667-191.146667 191.146667h-154.737778z m1720.32 0H2525.866667c-102.4 0-184.32-84.195556-184.32-191.146667V432.355556c0-104.675556 81.92-188.871111 184.32-188.871112h393.671111V364.088889H2548.622222c-11.377778 0-20.48 9.102222-20.48 20.48v273.066667c0 9.102222 9.102222 18.204444 20.48 18.204444h370.915556v125.155556h-2.275556z m-935.253333-102.4l88.746667 102.4h220.728888l-207.075555-236.657778c-22.755556-22.755556-22.755556-61.44 0-84.195556l204.8-236.657778h-223.004445L1979.733333 345.884444c-22.755556 22.755556-61.44 22.755556-84.195555 0l-88.746667-102.4h-218.453333l204.8 234.382223c25.031111 25.031111 22.755556 61.44-2.275556 84.195555l-202.524444 236.657778h218.453333l88.746667-102.4c25.031111-22.755556 63.715556-22.755556 86.471111 2.275556zM1196.942222 245.76h-136.533333c-113.777778 0-207.075556 84.195556-207.075556 188.871111v177.493333c0 102.4 93.297778 191.146667 207.075556 191.146667h136.533333v-122.88h-134.257778c-11.377778 0-20.48-9.102222-20.48-18.204444V386.844444c0-11.377778 9.102222-20.48 20.48-20.48h134.257778v-120.604444z" p-id="1459"></path></svg>