<?xml version="1.0" standalone="no"?><!DOCTYPE svg PUBLIC "-//W3C//DTD SVG 1.1//EN" "http://www.w3.org/Graphics/SVG/1.1/DTD/svg11.dtd"><svg t="1608103515229" class="icon" viewBox="0 0 1204 1024" version="1.1" xmlns="http://www.w3.org/2000/svg" p-id="13635" width="37.625" height="32" xmlns:xlink="http://www.w3.org/1999/xlink"><defs><style type="text/css"></style></defs><path d="M197.46142577 141.21142578m62.59232242 0l709.37965815 0q62.59232242 0 62.5923224 62.59232242l0 0q0 62.59232242-62.5923224 62.59232313l-709.37965815 0q-62.59232242 0-62.59232242-62.59232313l0 0q0-62.59232242 62.59232242-62.59232242Z" fill="#000000" p-id="13636"></path><path d="M197.46142577 725.40643765m62.59232242 0l709.37965815 0q62.59232242 0 62.5923224 62.59232313l0 0q0 62.59232242-62.5923224 62.59232242l-709.37965815 0q-62.59232242 0-62.59232242-62.59232242l0 0q0-62.59232242 62.59232242-62.59232313Z" fill="#000000" p-id="13637"></path><path d="M197.46142577 433.30893208m62.59232242-1e-8l709.37965815 0q62.59232242 0 62.5923224 62.59232242l0 0q0 62.59232242-62.5923224 62.59232314l-709.37965815 0q-62.59232242 0-62.59232242-62.59232314l0 0q0-62.59232242 62.59232242-62.59232242Z" fill="#000000" p-id="13638"></path></svg>