<svg width="16" height="16" viewBox="0 0 16 16" fill="none" xmlns="http://www.w3.org/2000/svg">
<path d="M14.927 7.04178C14.8555 3.14646 11.8981 0 8.26658 0H7.73316C4.10194 0 1.14452 3.14646 1.07303 7.04125C0.435355 7.41859 0 8.11528 0 8.92054V10.0096C0 11.2109 0.956903 12.1879 2.13342 12.1879C3.30994 12.1879 4.26684 11.2111 4.26684 10.0096V8.92054C4.26503 7.72662 3.3231 6.75641 2.15381 6.74429C2.36206 3.58861 4.78194 1.08905 7.73342 1.08905H8.26684C11.2188 1.08905 13.6379 3.58861 13.8467 6.74429C12.6774 6.75615 11.7352 7.72662 11.7337 8.92054V10.0096C11.7337 10.993 12.3791 11.8164 13.2568 12.086C12.4645 13.1508 11.3332 13.8999 10.0578 14.2042C9.87716 13.6514 9.37084 13.278 8.80026 13.2767C8.064 13.2767 7.46684 13.8862 7.46684 14.6382C7.46684 15.3903 8.06374 15.9997 8.80026 15.9997C9.26219 15.9992 9.69058 15.7536 9.93161 15.3513C11.8769 15.0037 13.5737 13.7985 14.569 12.0567C15.3995 11.7592 16 10.959 16 10.0098V8.9208C16 8.11528 15.5646 7.41859 14.927 7.04178ZM3.2 8.92054V10.0096C3.2 10.6101 2.72155 11.0986 2.13316 11.0986C1.54503 11.0986 1.06658 10.6101 1.06658 10.0096V8.92054C1.06658 8.31976 1.54503 7.83123 2.13316 7.83123C2.72155 7.83149 3.2 8.32002 3.2 8.92054ZM14.9334 10.0098C14.9334 10.5935 14.48 11.0678 13.9146 11.0942L13.873 11.0739C13.8694 11.0826 13.8635 11.0897 13.8596 11.0978C13.2735 11.0939 12.8005 10.608 12.7997 10.0098V8.9208C12.7997 8.32002 13.2782 7.83149 13.8666 7.83149C14.4547 7.83149 14.9332 8.32002 14.9332 8.9208V10.0098H14.9334Z" fill="#6D9BC2"/>
</svg>
