<svg width="15" height="15" viewBox="0 0 15 15" fill="none" xmlns="http://www.w3.org/2000/svg">
<path d="M10.8942 11.7227C10.8942 12.0289 11.0786 12.3119 11.3778 12.465C11.6772 12.6183 12.0459 12.6183 12.3454 12.465C12.6447 12.3119 12.829 12.029 12.829 11.7227C12.829 11.4163 12.6446 11.1334 12.3454 10.9803C12.046 10.8272 11.6773 10.8272 11.3778 10.9803C11.0786 11.1334 10.8942 11.4163 10.8942 11.7227Z" fill="#FFC500"/>
<path d="M7.30013 0C5.02149 0 3.16734 1.8355 3.16734 4.09153C3.16734 5.61322 4.01045 6.94416 5.2596 7.64763C4.98821 7.72556 4.72101 7.81983 4.45787 7.92863C3.59001 8.29157 2.80898 8.8126 2.13784 9.47703C1.46671 10.1416 0.942525 10.9126 0.57382 11.774C0.192672 12.664 0 13.6115 0 14.5857C0 14.8113 0.18638 14.9958 0.414286 14.9958C0.642192 14.9958 0.828572 14.8113 0.828572 14.5857C0.828572 11.0541 3.73067 8.18291 7.29593 8.18291C9.57458 8.18291 11.4286 6.34742 11.4286 4.09153C11.4286 1.83564 9.57667 0 7.30013 0ZM7.30013 7.36054C5.47926 7.36054 3.99605 5.89422 3.99605 4.08945C3.99605 2.28468 5.47716 0.81836 7.30013 0.81836C9.12086 0.81836 10.6042 2.28468 10.6042 4.08945C10.6042 5.89422 9.12086 7.36054 7.30013 7.36054ZM12.5929 7.96545H11.151C10.948 7.97168 10.7864 8.13571 10.7864 8.33878C10.7864 8.53977 10.948 8.70588 11.151 8.71197H12.5908C12.8001 8.71197 12.9679 8.54586 12.9679 8.33878C12.9679 8.13156 12.7999 7.96545 12.5929 7.96545Z" fill="#6D9BC2"/>
<path d="M14.2728 8.49255H13.5001C13.5022 8.51096 13.5043 8.52744 13.5043 8.54585V8.79612C13.5043 9.06064 13.2889 9.27396 13.0217 9.27396H10.7347C10.6063 9.27396 10.484 9.22274 10.3928 9.13442C10.3016 9.04417 10.252 8.92319 10.252 8.79612V8.54585C10.252 8.52744 10.254 8.51096 10.256 8.49255H9.48341C9.08366 8.49255 8.7583 8.81453 8.7583 9.21042V14.2821C8.7583 14.6779 9.08366 15 9.48341 15H14.2749C14.6746 15 15 14.678 15 14.2821V9.21042C14.9958 8.81453 14.6727 8.49255 14.2728 8.49255Z" fill="#6D9BC2"/>
</svg>
