<svg width="51" height="51" viewBox="0 0 51 51" fill="none" xmlns="http://www.w3.org/2000/svg">
<g filter="url(#filter0_d_4_120)">
<mask id="mask0_4_120" style="mask-type:alpha" maskUnits="userSpaceOnUse" x="6" y="6" width="37" height="37">
<path fill-rule="evenodd" clip-rule="evenodd" d="M6.23071 6.55359H42.5496V42.8723H6.23071V6.55359Z" fill="white"/>
</mask>
<g mask="url(#mask0_4_120)">
<path fill-rule="evenodd" clip-rule="evenodd" d="M42.5499 24.7129C42.5499 34.742 34.4196 42.8723 24.3905 42.8723C14.361 42.8723 6.23071 34.742 6.23071 24.7129C6.23071 14.6839 14.361 6.55359 24.3905 6.55359C34.4196 6.55359 42.5499 14.6839 42.5499 24.7129Z" fill="#DFDDCF"/>
</g>
<path fill-rule="evenodd" clip-rule="evenodd" d="M42.5499 24.7129C42.5499 34.742 34.4196 42.8723 24.3905 42.8723C14.361 42.8723 6.23071 34.742 6.23071 24.7129C6.23071 14.6839 14.361 6.55359 24.3905 6.55359C34.4196 6.55359 42.5499 14.6839 42.5499 24.7129" fill="#DFDDCF"/>
<mask id="mask1_4_120" style="mask-type:alpha" maskUnits="userSpaceOnUse" x="6" y="6" width="37" height="37">
<path fill-rule="evenodd" clip-rule="evenodd" d="M42.5499 24.7129C42.5499 34.742 34.4196 42.8723 24.3905 42.8723C14.361 42.8723 6.23071 34.742 6.23071 24.7129C6.23071 14.6839 14.361 6.55359 24.3905 6.55359C34.4196 6.55359 42.5499 14.6839 42.5499 24.7129" fill="white"/>
</mask>
<g mask="url(#mask1_4_120)">
<path fill-rule="evenodd" clip-rule="evenodd" d="M24.2771 28.0258V28.0258C20.0775 28.0258 16.641 33.7413 16.641 37.9414V43.1841C16.641 43.8761 16.7427 44.544 16.9168 45.1827C19.1971 46.2139 21.726 46.7929 24.3911 46.7929C26.9554 46.7929 29.3949 46.2586 31.6068 45.2994C31.8024 44.626 31.9132 43.9176 31.9132 43.1841V37.9414C31.9132 33.7413 28.4767 28.0258 24.2771 28.0258" fill="#A3A3A3"/>
</g>
<path opacity="0.226097" fill-rule="evenodd" clip-rule="evenodd" d="M44.999 19.4165L38.9216 18.8416C39.1532 15.1303 36.3805 11.8493 32.6527 11.4969L19.2615 10.2309C15.5337 9.878 12.1952 12.5814 11.727 16.2704L11.7156 16.2695L11.6951 16.4897L11.6673 16.7847L11.6012 17.4795L12.6529 17.5793C12.6434 17.6541 12.6274 17.7265 12.6206 17.8022L11.9463 24.9318C11.567 28.9455 14.5398 32.5397 18.5535 32.9194L30.03 34.0045C34.0436 34.3837 37.6378 31.4109 38.0176 27.3968L38.6914 20.2672C38.6987 20.1915 38.6964 20.1172 38.7014 20.042L44.8846 20.6264L44.999 19.4165Z" fill="#231815"/>
<path fill-rule="evenodd" clip-rule="evenodd" d="M30.8303 11.0164L19.3543 9.9314C15.3402 9.55164 11.746 12.5254 11.3667 16.5386L10.6924 23.6686C10.3131 27.6823 13.2864 31.276 17.3 31.6558L28.7761 32.7408C32.7897 33.1205 36.3839 30.1473 36.7637 26.1336L37.4379 19.004C37.8172 14.9904 34.8439 11.3962 30.8303 11.0164Z" fill="#FEFDF8"/>
<path fill-rule="evenodd" clip-rule="evenodd" d="M20.4409 21.196C20.3638 22.0107 19.6408 22.6088 18.8261 22.5317C18.0114 22.4547 17.4138 21.7317 17.4908 20.9174C17.5679 20.1028 18.2904 19.5046 19.1051 19.5817C19.9198 19.6587 20.5179 20.3813 20.4409 21.196Z" fill="#222222"/>
<path fill-rule="evenodd" clip-rule="evenodd" d="M30.7104 22.167C30.6333 22.9816 29.9108 23.5798 29.0956 23.5027C28.281 23.4257 27.6833 22.7026 27.7603 21.888C27.8374 21.0737 28.56 20.4752 29.3746 20.5527C30.1893 20.6297 30.7874 21.3523 30.7104 22.167Z" fill="#222222"/>
<mask id="mask2_4_120" style="mask-type:alpha" maskUnits="userSpaceOnUse" x="10" y="9" width="35" height="11">
<path fill-rule="evenodd" clip-rule="evenodd" d="M10.6906 9.28812H44.0884V19.7148H10.6906V9.28812Z" fill="white"/>
</mask>
<g mask="url(#mask2_4_120)">
<path fill-rule="evenodd" clip-rule="evenodd" d="M38.0109 17.9299C38.2425 14.2185 35.4698 10.9375 31.742 10.5851L18.3508 9.31867C14.623 8.96627 11.2846 11.6697 10.8164 15.3583L10.805 15.3573L10.7845 15.578L10.7567 15.8725L10.6906 16.5677L43.9739 19.7147L44.0884 18.5048L38.0109 17.9299Z" fill="#F5C644"/>
</g>
<path fill-rule="evenodd" clip-rule="evenodd" d="M24.8906 12.279L24.6818 14.4896C24.6608 14.708 24.4671 14.8684 24.2487 14.8475L23.6916 14.795L23.6396 15.3435L24.2633 15.4027C24.7479 15.4483 25.1778 15.0923 25.2239 14.6077L25.4632 12.0757L24.8906 12.279Z" fill="#222222"/>
<path fill-rule="evenodd" clip-rule="evenodd" d="M24.1334 14.2414C24.1211 14.3736 24.0035 14.4707 23.8717 14.4584C23.7395 14.4457 23.6424 14.328 23.6547 14.1958C23.6675 14.0641 23.7847 13.967 23.9169 13.9797C24.0486 13.9921 24.1457 14.1092 24.1334 14.2414Z" fill="#222222"/>
<path fill-rule="evenodd" clip-rule="evenodd" d="M27.7697 14.5629C27.7054 14.1134 26.7932 13.8782 25.5709 13.9685L25.5691 13.9885C26.7745 13.9288 27.4018 14.1153 27.5873 14.4654C27.8075 14.8816 26.5474 15.518 25.0982 15.7701C23.6494 16.0227 22.4139 15.8481 22.3396 15.3799C22.3305 15.3225 22.3396 15.2632 22.3651 15.203L22.3332 15.1998C22.299 15.2746 22.2849 15.3489 22.2954 15.4209C22.3702 15.9452 23.6562 16.1786 25.1679 15.9415C26.6797 15.7049 27.8444 15.0872 27.7697 14.5629Z" fill="#222222"/>
<path d="M40.6414 19.3439C39.9592 11.5166 33.8981 5.27488 25.9844 4.58252C18.0708 3.89017 10.9981 9.21131 8.98685 16.5745C7.53105 17.5894 6.44811 19.5508 6.26959 21.5913C6.03156 24.312 7.33659 27.6246 9.82373 27.8422C12.0848 28.04 12.303 25.5461 12.6005 22.1452C12.8782 18.9711 13.0964 16.4771 11.5335 16.1119C13.4257 10.1091 19.2489 6.04937 25.8059 6.62303C32.3629 7.1967 37.3927 12.2059 38.2336 18.2194C36.6112 18.5344 36.4128 20.8016 36.1351 23.9758C35.9368 26.243 35.7979 27.8301 36.151 29.0032C33.8383 31.9993 30.7006 34.0094 27.0036 34.5998C26.4046 33.6336 25.1075 32.8347 23.5248 32.6962C21.2638 32.4984 19.3558 33.4738 19.2367 34.8341C19.1177 36.1945 20.8274 37.4863 23.0884 37.6841C25.3495 37.882 27.2575 36.9066 27.3765 35.5462C31.0735 34.9559 34.4571 32.7388 36.7698 29.7427C36.976 29.9893 37.4282 30.0288 37.8805 30.0684C40.3676 30.286 42.228 27.2503 42.4661 24.5296C42.6247 22.7159 41.8988 20.5962 40.6414 19.3439Z" fill="#212121"/>
</g>
<defs>
<filter id="filter0_d_4_120" x="0.230713" y="0.521957" width="50.7683" height="50.3503" filterUnits="userSpaceOnUse" color-interpolation-filters="sRGB">
<feFlood flood-opacity="0" result="BackgroundImageFix"/>
<feColorMatrix in="SourceAlpha" type="matrix" values="0 0 0 0 0 0 0 0 0 0 0 0 0 0 0 0 0 0 127 0" result="hardAlpha"/>
<feOffset dy="2"/>
<feGaussianBlur stdDeviation="3"/>
<feColorMatrix type="matrix" values="0 0 0 0 0 0 0 0 0 0 0 0 0 0 0 0 0 0 0.297148 0"/>
<feBlend mode="normal" in2="BackgroundImageFix" result="effect1_dropShadow_4_120"/>
<feBlend mode="normal" in="SourceGraphic" in2="effect1_dropShadow_4_120" result="shape"/>
</filter>
</defs>
</svg>
