<svg t="1653359908796" class="icon" viewBox="0 0 1024 1024" version="1.1" xmlns="http://www.w3.org/2000/svg" p-id="2292" width="200" height="200"><path d="M554.667 85.333H213.333A85.333 85.333 0 0 0 128 170.667v682.666a85.333 85.333 0 0 0 85.333 85.334H512a256 256 0 0 1-85.333-85.334H213.333V170.667H512V384h213.333v50.347a267.093 267.093 0 0 1 85.334 34.986v-128l-256-256m209.92 678.827a192.427 192.427 0 1 0-61.014 60.587l133.12 130.986L896 896.427 764.587 764.16m-162.56 4.267a106.667 106.667 0 1 1 0-213.334 106.667 106.667 0 0 1 0 213.334z" fill="#2C2C2C" p-id="2293"></path></svg>