<svg t="1653357295781" class="icon" viewBox="0 0 1024 1024" version="1.1" xmlns="http://www.w3.org/2000/svg" p-id="2140" width="200" height="200"><path d="M512 992a484.4 484.4 0 0 1-191.856-39.824 36.32 36.32 0 1 1 28.96-66.608A409.248 409.248 0 1 0 176.08 742.224a36.448 36.448 0 0 1-60.096 41.264A480.112 480.112 0 1 1 512 992z" p-id="2141"></path><path d="M728.592 551.024H308.944a36.944 36.944 0 1 1 0-73.888h419.648a36.944 36.944 0 1 1 0 73.888z" p-id="2142"></path><path d="M540.928 738.672a34.656 34.656 0 0 1-25.856-11.088 36.576 36.576 0 0 1 0-52.464L676.88 513.312 515.072 351.504a37.104 37.104 0 1 1 52.464-52.464l188.4 188.4a37.632 37.632 0 0 1 11.088 25.856 34.656 34.656 0 0 1-11.088 25.856l-188.4 188.4a36.8 36.8 0 0 1-26.608 11.12z" p-id="2143"></path></svg>