<svg t="1653355551942" class="icon" viewBox="0 0 1024 1024" version="1.1" xmlns="http://www.w3.org/2000/svg" p-id="1989" width="200" height="200"><path d="M875.52 87.04H148.48c-33.792 0-61.44 27.648-61.44 61.44v727.04c0 33.792 27.648 61.44 61.44 61.44h727.04c33.792 0 61.44-27.648 61.44-61.44V148.48c0-33.792-27.648-61.44-61.44-61.44zM896 875.52c0 11.11-9.37 20.48-20.48 20.48H148.48c-11.11 0-20.48-9.37-20.48-20.48V342.323c1.638 0.41 3.328 0.717 5.12 0.717H896v532.48z m0-573.44H133.12c-1.792 0-3.482 0.307-5.12 0.717V148.48c0-11.11 9.37-20.48 20.48-20.48h727.04c11.11 0 20.48 9.37 20.48 20.48v153.6z" p-id="1990"></path><path d="M430.797 758.374c4.25 4.25 9.933 6.144 15.565 5.888 5.58 0.308 11.315-1.638 15.564-5.888L734.362 485.94a20.521 20.521 0 0 0 0-28.979 20.521 20.521 0 0 0-28.98 0l-259.02 259.02-127.796-127.794a20.521 20.521 0 0 0-28.979 0 20.521 20.521 0 0 0 0 28.979l141.21 141.21z" p-id="1991"></path></svg>