<?xml version="1.0" standalone="no"?><!DOCTYPE svg PUBLIC "-//W3C//DTD SVG 1.1//EN" "http://www.w3.org/Graphics/SVG/1.1/DTD/svg11.dtd"><svg t="1623288482750" class="icon" viewBox="0 0 1024 1024" version="1.1" xmlns="http://www.w3.org/2000/svg" p-id="3241" xmlns:xlink="http://www.w3.org/1999/xlink" width="32" height="32"><defs><style type="text/css"></style></defs><path d="M930.582456 537.582035C930.582456 780.108351 732.968421 977.722386 488.645614 977.722386 244.322807 977.722386 48.505263 780.108351 48.505263 537.582035s197.614035-441.936842 441.936842-441.936842c242.526316 0 440.140351 197.614035 440.140351 441.936842" fill="#DFDDCF" p-id="3242"></path><path d="M483.25614 617.992982c-102.4 0-185.038596 138.329825-185.038596 240.729825v77.249123c57.487719 26.947368 120.364912 41.319298 188.631579 41.319298 64.673684 0 127.550877-14.37193 183.242105-39.522807v-80.842105c-1.796491-100.603509-84.435088-238.933333-186.835088-238.933334z" fill="#A3A3A3" p-id="3243"></path><path d="M980.884211 407.803509l-147.312281-12.575439c5.389474-89.824561-61.080702-170.666667-152.701755-177.852631l-325.164912-30.540351c-89.824561-8.982456-172.463158 57.487719-183.242105 147.31228v12.575439l-1.796491 16.168421 25.150877 1.796491v5.389474l-16.168421 172.463158C170.666667 639.550877 242.526316 727.578947 339.536842 736.561404l278.45614 26.947368c97.010526 8.982456 185.038596-62.877193 194.021053-159.887719l16.168421-172.463158v-5.389474l150.905263 14.37193 1.796492-32.336842z" fill="#231815" p-id="3244"></path><path d="M635.957895 204.8L357.501754 177.852632C260.491228 168.870175 172.463158 240.729825 163.480702 337.740351l-16.168421 172.463158c-8.982456 97.010526 62.877193 185.038596 159.887719 194.021052l278.45614 26.947369c97.010526 8.982456 185.038596-62.877193 194.021053-159.887719l16.168421-172.463158c10.778947-98.807018-62.877193-185.038596-159.887719-194.021053" fill="#FEFDF8" p-id="3245"></path><path d="M384.449123 450.919298c-1.796491 19.761404-19.761404 34.133333-39.522807 32.336842-19.761404-1.796491-34.133333-19.761404-32.336842-39.522807 1.796491-19.761404 19.761404-34.133333 39.522807-32.336842 19.761404 3.592982 34.133333 19.761404 32.336842 39.522807M634.161404 474.273684c-1.796491 19.761404-19.761404 34.133333-39.522808 32.336842-19.761404-1.796491-34.133333-19.761404-32.336842-39.522807 1.796491-19.761404 19.761404-34.133333 39.522807-32.336842 17.964912 3.592982 34.133333 19.761404 32.336843 39.522807" fill="#222222" p-id="3246"></path><path d="M811.07986 371.460491c5.389474-89.824561-61.080702-170.666667-152.701755-177.852631L333.213193 163.067509c-89.824561-8.982456-172.463158 57.487719-183.242105 147.31228v12.575439l-3.592983 16.168421 808.421053 77.249123 3.592982-28.74386-147.31228-16.168421z" fill="#F5C644" p-id="3247"></path><path d="M499.424561 291.031579l5.389474-61.080702-14.37193 5.389474-5.389473 53.894737c0 5.389474-5.389474 8.982456-10.778948 8.982456l-14.37193-1.796491-1.796491 12.575438 14.37193 1.796491c16.168421 1.796491 26.947368-7.185965 26.947368-19.761403z" fill="#222222" p-id="3248"></path><path d="MNaN NaNaNaN NaN NaN 1 0 NaN NaN NaN NaN NaN 1 0 NaN NaNZ" fill="#222222" p-id="3249"></path><path d="M508.407018 276.659649c28.74386-1.796491 44.912281 3.592982 48.505263 12.575439 5.389474 10.778947-25.150877 25.150877-61.080702 32.336842-35.929825 5.389474-64.673684 1.796491-66.470175-8.982456v-3.592983c0 1.796491-1.796491 3.592982-1.796492 5.389474 1.796491 12.575439 32.336842 17.964912 70.063158 12.575439 35.929825-5.389474 64.673684-21.557895 62.877193-34.133334 0-12.575439-21.557895-19.761404-52.098245-16.168421z" fill="#222222" p-id="3250"></path><path d="M874.262456 406.007018c-16.168421-190.42807-163.480702-341.333333-355.705263-357.501755s-364.687719 111.382456-413.192982 291.031579c-35.929825 25.150877-61.080702 71.859649-66.470176 122.161404-5.389474 66.470175 25.150877 147.312281 86.231579 152.701754 55.691228 5.389474 61.080702-55.691228 68.266667-138.329825 7.185965-77.249123 12.575439-138.329825-25.150877-147.31228 44.912281-147.312281 186.835088-244.322807 346.722807-231.747369s280.252632 136.533333 301.810526 282.049123c-39.522807 7.185965-44.912281 62.877193-50.301755 140.126316-5.389474 55.691228-8.982456 93.417544 0 122.161403-55.691228 73.65614-132.940351 122.161404-222.764912 136.533334-14.37193-23.354386-46.708772-43.115789-84.435088-46.708772-55.691228-5.389474-100.603509 19.761404-104.196491 52.098245s39.522807 64.673684 93.417544 70.063158 100.603509-19.761404 104.196491-52.098245c89.824561-14.37193 172.463158-68.266667 228.154386-140.126316 5.389474 5.389474 16.168421 7.185965 26.947369 7.185965 61.080702 5.389474 105.992982-68.266667 111.382456-134.736842 3.592982-44.912281-14.37193-97.010526-44.912281-127.550877z" fill="#212121" p-id="3251"></path></svg>